<?xml version="1.0" encoding="utf-8"?>
<!-- Svg Vector Icons : http://www.onlinewebfonts.com/icon -->
<!DOCTYPE svg PUBLIC "-//W3C//DTD SVG 1.1//EN" "http://www.w3.org/Graphics/SVG/1.1/DTD/svg11.dtd">
<svg version="1.1" xmlns="http://www.w3.org/2000/svg" xmlns:xlink="http://www.w3.org/1999/xlink" x="0px" y="0px" viewBox="0 0 256 256" enable-background="new 0 0 256 256" xml:space="preserve">
<metadata> Svg Vector Icons : http://www.onlinewebfonts.com/icon </metadata>
<g><g><path fill="#eae9ef" d="M156.6,113.2c8.6,0,15.6,7.6,15.6,17V170c0,9.4-7,17-15.6,17H99.4c-8.6,0-15.6-7.6-15.6-17v-39.7c0-9.4,7-17,15.6-17h13.8l0,0h29.5l0,0H156.6z M127.9,128c-8.1,0-14.8,6.3-14.8,14.1c0,5.2,4,9.2,8.4,11.6v18.3h12.6v-18.3c4.4-2.5,8.4-6.4,8.4-11.6C142.6,134.4,136,128,127.9,128z M128,83.8c-13.9,0-14.7,11.7-14.8,14.8v14.7H98.4V99.9c0,0,0-31,29.5-31s29.5,31,29.5,31v13.3h-14.7V98.5C142.7,95.5,141.9,83.8,128,83.8z M128,246c-65.2,0-118-52.8-118-118C10,62.9,62.8,10,128,10c21,0,40.7,5.5,57.8,15.1l11-15.2l19.6,51.6l-51.5-7.6L177,37.2c-14.6-7.9-31.3-12.4-49-12.4C71,24.8,24.7,71,24.7,128c0,57,46.2,103.2,103.3,103.2c57,0,103.3-46.2,103.3-103.2c0-13.9-2.8-27.2-7.8-39.3l13.6-5.6c5.7,13.8,8.9,29,8.9,44.9C246,193.2,193.1,246,128,246z"/></g></g>
</svg>